<svg xmlns="http://www.w3.org/2000/svg" version="1.1" xmlns:xlink="http://www.w3.org/1999/xlink" width="32" height="32"><svg viewBox="0 0 32 32" xmlns="http://www.w3.org/2000/svg">
  <!-- Base circle for the wheel -->
  <circle cx="16" cy="16" r="15" fill="#f8f9fa" stroke="#333" stroke-width="1"></circle>
  
  <!-- Wheel segments - simplified for favicon size -->
  <path d="M16,16 L16,1 A15,15 0 0,1 28.5,8.5 Z" fill="#ff6b6b"></path>
  <path d="M16,16 L28.5,8.5 A15,15 0 0,1 28.5,23.5 Z" fill="#48dbfb"></path>
  <path d="M16,16 L28.5,23.5 A15,15 0 0,1 16,31 Z" fill="#1dd1a1"></path>
  <path d="M16,16 L16,31 A15,15 0 0,1 3.5,23.5 Z" fill="#feca57"></path>
  <path d="M16,16 L3.5,23.5 A15,15 0 0,1 3.5,8.5 Z" fill="#a29bfe"></path>
  <path d="M16,16 L3.5,8.5 A15,15 0 0,1 16,1 Z" fill="#54a0ff"></path>
  
  <!-- Center point -->
  <circle cx="16" cy="16" r="3" fill="#333"></circle>
  
  <!-- Arrow indicator -->
  <path d="M16,5 L19,9 L13,9 Z" fill="#333"></path>
</svg><style>@media (prefers-color-scheme: light) { :root { filter: none; } }
@media (prefers-color-scheme: dark) { :root { filter: none; } }
</style></svg>