<?xml version="1.0" encoding="UTF-8" standalone="no"?>
<svg viewBox="0 0 32 32" xmlns="http://www.w3.org/2000/svg">
  <!-- Base circle for the wheel -->
  <circle cx="16" cy="16" r="15" fill="#f8f9fa" stroke="#333" stroke-width="1"/>
  
  <!-- Wheel segments - simplified for favicon size -->
  <path d="M16,16 L16,1 A15,15 0 0,1 28.5,8.5 Z" fill="#ff6b6b"/>
  <path d="M16,16 L28.5,8.5 A15,15 0 0,1 28.5,23.5 Z" fill="#48dbfb"/>
  <path d="M16,16 L28.5,23.5 A15,15 0 0,1 16,31 Z" fill="#1dd1a1"/>
  <path d="M16,16 L16,31 A15,15 0 0,1 3.5,23.5 Z" fill="#feca57"/>
  <path d="M16,16 L3.5,23.5 A15,15 0 0,1 3.5,8.5 Z" fill="#a29bfe"/>
  <path d="M16,16 L3.5,8.5 A15,15 0 0,1 16,1 Z" fill="#54a0ff"/>
  
  <!-- Center point -->
  <circle cx="16" cy="16" r="3" fill="#333"/>
  
  <!-- Arrow indicator -->
  <path d="M16,5 L19,9 L13,9 Z" fill="#333"/>
</svg>